<svg id="Camada_1" data-name="Camada 1" xmlns="http://www.w3.org/2000/svg" viewBox="0 0 196 275"><defs><style>.cls-1{fill:#353535;}.cls-2{fill:#6bd425;}.cls-3{fill:#00a6fb;}.cls-4{fill:#fbff12;}.cls-5{fill:#e11a27;}</style></defs><title>Imagens site</title><path class="cls-1" d="M99.05,185.06c-1.68,0-3.37-.05-5.07-.16a82.87,82.87,0,1,1,5.07.16ZM99,21.65a80.45,80.45,0,1,0,4.91.15C102.22,21.7,100.57,21.65,99,21.65Z"/><rect class="cls-2" x="68.39" y="110.88" width="39.94" height="5.19"/><rect class="cls-3" x="43.5" y="126.96" width="39.94" height="5.19"/><rect class="cls-4" x="93.81" y="93.24" width="39.94" height="5.19"/><rect class="cls-5" x="119.75" y="75.6" width="39.94" height="5.19"/><rect class="cls-1" x="81.47" y="195.84" width="2.07" height="51.81"/><path class="cls-1" d="M88.16,247.52H86.09V218.14h5.24a16.92,16.92,0,0,1,16.9,16.9v12.35h-2.07V235a14.84,14.84,0,0,0-14.83-14.83H88.16Z"/><path class="cls-1" d="M74.44,247.61a14.74,14.74,0,0,1,0-29.47h7.8v2.07h-7.8a12.66,12.66,0,0,0,0,25.32Z"/><rect class="cls-1" x="91.46" y="232.78" width="11.12" height="2.07"/><rect class="cls-1" x="110.91" y="196.39" width="2.07" height="51.54"/><path class="cls-1" d="M129,247.61a14.06,14.06,0,1,1,14.06-14.06v1H129v-2.08H141a12,12,0,1,0-11.94,13Z"/></svg>