<svg xmlns="http://www.w3.org/2000/svg" viewBox="0 0 112 79.56"><defs><style>.cls-1{fill:#fff;}</style></defs><title>Asset 2</title><g id="Layer_2" data-name="Layer 2"><g id="botões"><rect class="cls-1" x="29.36" y="74.44" width="23.31" height="5.12"/><rect class="cls-1" y="74.44" width="23.31" height="5.12"/><rect class="cls-1" x="59.03" y="74.44" width="23.31" height="5.12"/><rect class="cls-1" x="88.69" y="74.44" width="23.31" height="5.12"/><rect class="cls-1" x="29.88" width="2.39" height="65.22"/><path class="cls-1" d="M38.07,65H35.68V28.17h6.49A21.19,21.19,0,0,1,63.34,49.34V64.88H61V49.34A18.8,18.8,0,0,0,42.17,30.56h-4.1Z"/><path class="cls-1" d="M20.91,65a18.44,18.44,0,1,1,0-36.88h9.82v2.39H20.91a16,16,0,1,0,0,32.1Z"/><rect class="cls-1" x="42.34" y="46.61" width="14" height="2.39"/><rect class="cls-1" x="66.93" y="0.68" width="2.39" height="64.88"/><path class="cls-1" d="M89.63,65a17.59,17.59,0,1,1,17.59-17.59v1.2H89.63V46.27h15.15A15.2,15.2,0,1,0,89.63,62.66Z"/></g></g></svg>