<svg id="Camada_1" data-name="Camada 1" xmlns="http://www.w3.org/2000/svg" viewBox="0 0 235 137"><defs><style>.cls-1{fill:#353535;}</style></defs><title>Imagens site</title><path class="cls-1" d="M103.78,72.38c0,4.35,15.13,7.87,33.8,7.87A130.16,130.16,0,0,0,155,79.13a40.24,40.24,0,0,0,2.1-5.17,7.27,7.27,0,0,0,2.37-2.25A5.51,5.51,0,0,1,157.41,73h0c-3.69,1.53-11.17,2.57-19.79,2.57-12.28,0-22.24-2.12-22.24-4.72s10-4.73,22.24-4.73c9.43,0,17.48,1.24,20.72,3,.18-1,.33-1.94.43-2.93a120.14,120.14,0,0,0-21.15-1.72C118.91,64.51,103.78,68,103.78,72.38Z"/><path class="cls-1" d="M148.46,88.58a38.81,38.81,0,0,0,4.77-6.21,22.89,22.89,0,0,0,7.59-2.46,25.14,25.14,0,0,1-7,1.6h0c-4.95.49-10.47.78-16.21.78-22.32,0-40.41-4.14-40.41-9.23s18.09-9.23,40.41-9.23a156.91,156.91,0,0,1,21.26,1.38c.09-1.06.15-2.14.15-3.23A38.93,38.93,0,1,0,87,82.5c10.44,3.77,29.2,6.3,50.61,6.3C141.28,88.8,145,88.72,148.46,88.58ZM151.66,63c-1.69-.13-3.42-.23-5.18-.32a3.39,3.39,0,0,0,.37-1.37H152A7.7,7.7,0,0,1,151.66,63Zm-8.15-14.49c3.05,0,8.07,1.38,8.54,7.42h-5.16c-.22-1.28-1-3.28-3.38-3.13-3.2,0-4,3.2-4,5.6a11.09,11.09,0,0,0,.58,4.07c-1.21,0-2.42,0-3.65,0h-1.79a14,14,0,0,1-.37-3.22C134.24,53,137,48.55,143.51,48.55Zm-19.19,4.07c-2.55,0-3,1.56-3.13,2.69h-4.9c.58-5.92,4.68-6.76,8.65-6.76,2.72,0,7.7.84,7.7,5.6v8.37c-1.75,0-3.49.08-5.2.15a3.44,3.44,0,0,0,.22-1.22V59c-.51.4-1.34.73-3.45,1.06-1.89.32-3.45.8-3.45,2.9v.13c-1.73.13-3.43.29-5.09.46v-.26c0-3.78,2.4-5.7,5.63-6.18l4.58-.69c.8-.11,1.78-.43,1.78-1.52C127.66,52.73,125.63,52.62,124.32,52.62Zm-17.78-4.07c2.73,0,7.71.84,7.71,5.6v9.54c-2.43.28-4.77.59-7,1a3.62,3.62,0,0,0,2-3.2V59c-.51.4-1.35.73-3.45,1.06-1.89.32-3.46.8-3.46,2.9a2.14,2.14,0,0,0,1.71,2.25c-2.08.38-4.07.8-5.95,1.26a5.79,5.79,0,0,1-.84-3.18c0-3.78,2.39-5.7,5.63-6.18l4.58-.69c.8-.11,1.78-.43,1.78-1.52,0-2.15-2-2.26-3.34-2.26-2.55,0-3,1.56-3.13,2.69H97.89C98.47,49.39,102.58,48.55,106.54,48.55ZM94.19,67.49q-2.81.81-5.17,1.72l.08-16.52H86.3V49.06h2.8V47.5c0-4,2.18-5.53,5.67-5.53,1.49,0,2.18,0,2.61.07v4.11H96c-1.75,0-1.78.55-1.78,2.15v.76h3.3v3.63h-3.3Z"/><path class="cls-1" d="M145.63,91.43h-.09c-2.58.07-5.3.09-8,.09-19,0-36-1.89-47.67-4.89h0A54.37,54.37,0,0,1,79.29,82.9C82.05,84.55,86,86,90.8,87.67a38.94,38.94,0,0,0,53.61,4.7c4.83-.56,10.44-1.36,13.75-2.49a64.65,64.65,0,0,1-12.53,1.54Z"/><path class="cls-1" d="M79.17,82.85l.12.05-.12-.06S79.13,82.82,79.17,82.85Z"/><path class="cls-1" d="M158.16,89.88l.12,0c.05,0,0,0,0,0Z"/><path class="cls-1" d="M86.9,82.48s.74,1.24,1.36,2.11c.76,1.06,1.58,2,1.58,2l.07,0A38.63,38.63,0,0,1,87,82.5Z"/><path class="cls-1" d="M145.54,91.43h.09c.87-.76.66-.58,1.56-1.45.71-.69,1.36-1.4,1.36-1.4h-.09A39.27,39.27,0,0,1,145.54,91.43Z"/><path class="cls-1" d="M153.79,81.51l.57-1,.74-1.37-.09,0c-.4.81-.81,1.61-1.27,2.38Z"/><path class="cls-1" d="M158.81,66.24l.1-1h-.07c0,.34-.07.68-.11,1Z"/><path class="cls-1" d="M157.41,73c2-1,2.28-1.79,2.3-1.91a1.52,1.52,0,0,1-.23.59,1.28,1.28,0,0,0,.34-.82c0-.61-.54-1.19-1.52-1.72h0a37.58,37.58,0,0,1-.91,3.87Z"/><path class="cls-1" d="M122.38,70.67c0,2.1,6.81,3.8,15.2,3.8s15.2-1.7,15.2-3.8-6.8-3.8-15.2-3.8S122.38,68.57,122.38,70.67Zm22.3-1c0,1-3.18,1.78-7.1,1.78s-7.09-.8-7.09-1.78,3.18-1.78,7.09-1.78S144.68,68.72,144.68,69.71Z"/><path class="cls-1" d="M32,105.69c0-.38,0-.51.42-.51h.34v-1c-.1,0-.27,0-.62,0a1.18,1.18,0,0,0-1.35,1.32v.37h-.67v.86h.67v3.74H32v-3.74h.79v-.86H32Z"/><path class="cls-1" d="M37,109.57v-2.49c0-1.13-1.18-1.33-1.83-1.33-.94,0-1.92.2-2.06,1.61h1.17a.65.65,0,0,1,.74-.64c.31,0,.8,0,.8.53,0,.26-.24.34-.43.37l-1.09.16a1.41,1.41,0,0,0-1.34,1.47,1.29,1.29,0,0,0,1.41,1.34,1.86,1.86,0,0,0,1.48-.66,2.25,2.25,0,0,0,.12.54h1.3v-.18C37.09,110.24,37,110.12,37,109.57Zm-1.18-.75a1,1,0,0,1-1.08.91.53.53,0,0,1-.56-.56c0-.5.37-.61.82-.69a1.73,1.73,0,0,0,.82-.25Z"/><path class="cls-1" d="M39.81,106.77a.77.77,0,0,1,.8.74h1.23a1.88,1.88,0,0,0-2-1.76c-1.56,0-2.21,1.06-2.21,2.55a2,2,0,0,0,2.13,2.29,2,2,0,0,0,2.1-1.8H40.61a.85.85,0,0,1-.83.81c-.91,0-.93-1-.93-1.5S39.05,106.77,39.81,106.77Z"/><path class="cls-1" d="M45.44,108.52a.92.92,0,0,1-.93,1c-.38,0-.79-.14-.79-.85v-2.85H42.51v3a1.48,1.48,0,0,0,1.56,1.69,1.51,1.51,0,0,0,1.4-.77h0v.65h1.16v-4.6H45.44Z"/><rect class="cls-1" x="47.64" y="104.26" width="1.21" height="6.21"/><path class="cls-1" d="M52.82,106.47h0a1.46,1.46,0,0,0-1.33-.72c-1,0-1.91.78-1.91,2.37,0,1.26.57,2.47,1.93,2.47a1.47,1.47,0,0,0,1.34-.7h0v.58H54v-6.21H52.82Zm-1,3.13c-.78,0-1-.85-1-1.4,0-.72.26-1.4,1-1.4s1,.74,1,1.47S52.57,109.6,51.8,109.6Z"/><path class="cls-1" d="M58.65,109.57v-2.49c0-1.13-1.18-1.33-1.83-1.33-.94,0-1.92.2-2.06,1.61h1.17a.65.65,0,0,1,.74-.64c.32,0,.8,0,.8.53,0,.26-.23.34-.42.37l-1.09.16a1.4,1.4,0,0,0-1.34,1.47,1.29,1.29,0,0,0,1.4,1.34,1.86,1.86,0,0,0,1.48-.66,2.25,2.25,0,0,0,.12.54h1.3v-.18C58.78,110.24,58.65,110.12,58.65,109.57Zm-1.18-.75a1,1,0,0,1-1.08.91.53.53,0,0,1-.56-.56c0-.5.37-.61.82-.69a1.73,1.73,0,0,0,.82-.25Z"/><path class="cls-1" d="M62.55,106.47h0a1.46,1.46,0,0,0-1.33-.72c-1,0-1.91.78-1.91,2.37,0,1.26.57,2.47,1.93,2.47a1.45,1.45,0,0,0,1.33-.7h0v.58h1.19v-6.21H62.55Zm-1,3.13c-.78,0-1-.85-1-1.4,0-.72.26-1.4,1-1.4s1,.74,1,1.47S62.29,109.6,61.53,109.6Z"/><path class="cls-1" d="M66.5,105.75a2.14,2.14,0,0,0-2.21,2.32c0,1.9,1,2.52,2.29,2.52a2,2,0,0,0,2-1.47H67.36a.77.77,0,0,1-.78.5c-1,0-1-.78-1.08-1.12h3.16v-.22C68.66,106.18,67.41,105.75,66.5,105.75Zm-1,2c.07-.6.37-1,.94-1a.93.93,0,0,1,.93,1Z"/><path class="cls-1" d="M74.5,106.47h0a1.46,1.46,0,0,0-1.33-.72c-1,0-1.91.78-1.91,2.37,0,1.26.57,2.47,1.94,2.47a1.46,1.46,0,0,0,1.33-.7h0v.58h1.19v-6.21H74.5Zm-1,3.13c-.78,0-1-.85-1-1.4,0-.72.26-1.4,1-1.4s1,.74,1,1.47S74.25,109.6,73.48,109.6Z"/><path class="cls-1" d="M78.45,105.75a2.13,2.13,0,0,0-2.2,2.32c0,1.9,1,2.52,2.29,2.52a2,2,0,0,0,2-1.47H79.31a.77.77,0,0,1-.77.5c-1,0-1.05-.78-1.08-1.12h3.15v-.22C80.61,106.18,79.36,105.75,78.45,105.75Zm-1,2c.07-.6.37-1,.94-1a.94.94,0,0,1,.94,1Z"/><path class="cls-1" d="M87.18,109.57v-2.49c0-1.13-1.18-1.33-1.83-1.33-.94,0-1.92.2-2.06,1.61h1.17a.65.65,0,0,1,.74-.64c.32,0,.8,0,.8.53,0,.26-.23.34-.42.37l-1.09.16a1.4,1.4,0,0,0-1.34,1.47,1.29,1.29,0,0,0,1.4,1.34,1.86,1.86,0,0,0,1.48-.66,2.25,2.25,0,0,0,.12.54h1.3v-.18C87.31,110.24,87.18,110.12,87.18,109.57ZM86,108.82a1,1,0,0,1-1.08.91.53.53,0,0,1-.56-.56c0-.5.37-.61.82-.69a1.73,1.73,0,0,0,.82-.25Z"/><path class="cls-1" d="M89.25,106.66h0v-.79H88.08v4.6h1.21v-2.4A1,1,0,0,1,90.4,107h.35v-1.22l-.24,0A1.35,1.35,0,0,0,89.25,106.66Z"/><path class="cls-1" d="M94.15,106.55h0a1.39,1.39,0,0,0-1.29-.8c-1.42,0-2,1.23-2,2.52a2.09,2.09,0,0,0,1.94,2.32,1.36,1.36,0,0,0,1.31-.69h0v2.36h1.21v-6.39H94.15Zm-1,3c-.72,0-1-.49-1-1.31,0-1.17.55-1.46,1-1.46.25,0,1,.12,1,1.4C94.12,109.14,93.68,109.57,93.11,109.57Z"/><path class="cls-1" d="M99.14,108.52a.92.92,0,0,1-.94,1c-.37,0-.78-.14-.78-.85v-2.85H96.21v3a1.48,1.48,0,0,0,1.56,1.69,1.51,1.51,0,0,0,1.4-.77h0v.65h1.16v-4.6H99.14Z"/><rect class="cls-1" x="101.34" y="104.2" width="1.21" height="1.12"/><rect class="cls-1" x="101.34" y="105.87" width="1.21" height="4.6"/><path class="cls-1" d="M104.88,104.62h-1.21v1.25h-.62v.86h.62v2.8c0,.59.19,1,1.24,1h.72v-.92l-.25,0c-.49,0-.5-.11-.5-.38v-2.5h.75v-.86h-.75Z"/><path class="cls-1" d="M108.06,105.75a2.13,2.13,0,0,0-2.2,2.32c0,1.9,1,2.52,2.29,2.52a2,2,0,0,0,2-1.47h-1.24a.78.78,0,0,1-.78.5c-1,0-1.05-.78-1.08-1.12h3.16v-.22C110.23,106.18,109,105.75,108.06,105.75Zm-1,2c.07-.6.38-1,1-1a.93.93,0,0,1,.93,1Z"/><path class="cls-1" d="M112.21,104.62H111v1.25h-.63v.86H111v2.8c0,.59.19,1,1.23,1H113v-.92l-.25,0c-.5,0-.5-.11-.5-.38v-2.5H113v-.86h-.75Z"/><path class="cls-1" d="M116.49,108.52a.92.92,0,0,1-.94,1c-.37,0-.78-.14-.78-.85v-2.85h-1.21v3a1.48,1.48,0,0,0,1.56,1.69,1.51,1.51,0,0,0,1.4-.77h0v.65h1.16v-4.6h-1.21Z"/><path class="cls-1" d="M119.82,106.66h0v-.79h-1.16v4.6h1.21v-2.4c0-.51.17-1.09,1.12-1.09h.34v-1.22l-.23,0A1.34,1.34,0,0,0,119.82,106.66Z"/><path class="cls-1" d="M125.56,109.57v-2.49c0-1.13-1.19-1.33-1.83-1.33-1,0-1.92.2-2.06,1.61h1.17a.64.64,0,0,1,.74-.64c.31,0,.79,0,.79.53,0,.26-.23.34-.42.37l-1.09.16a1.4,1.4,0,0,0-1.34,1.47,1.29,1.29,0,0,0,1.4,1.34,1.9,1.9,0,0,0,1.49-.66,2.25,2.25,0,0,0,.11.54h1.31v-.18C125.68,110.24,125.56,110.12,125.56,109.57Zm-1.19-.75a1,1,0,0,1-1.08.91.53.53,0,0,1-.56-.56c0-.5.37-.61.82-.69a1.73,1.73,0,0,0,.82-.25Z"/><path class="cls-1" d="M126.45,110.47h.73a.93.93,0,0,1-.73,1v.46h0a1.47,1.47,0,0,0,1.29-1.62v-1.09h-1.3Z"/><path class="cls-1" d="M134.29,109.57v-2.49c0-1.13-1.19-1.33-1.84-1.33-.94,0-1.92.2-2.06,1.61h1.17a.66.66,0,0,1,.75-.64c.31,0,.79,0,.79.53,0,.26-.23.34-.42.37l-1.09.16a1.4,1.4,0,0,0-1.34,1.47,1.29,1.29,0,0,0,1.4,1.34,1.9,1.9,0,0,0,1.49-.66,1.85,1.85,0,0,0,.11.54h1.31v-.18C134.41,110.24,134.29,110.12,134.29,109.57Zm-1.19-.75a1,1,0,0,1-1.08.91.53.53,0,0,1-.56-.56c0-.5.37-.61.82-.69a1.73,1.73,0,0,0,.82-.25Z"/><path class="cls-1" d="M136.35,106.66h0v-.79h-1.16v4.6h1.21v-2.4A1,1,0,0,1,137.5,107h.35v-1.22l-.23,0A1.36,1.36,0,0,0,136.35,106.66Z"/><path class="cls-1" d="M139.9,104.62h-1.21v1.25h-.63v.86h.63v2.8c0,.59.19,1,1.23,1h.73v-.92l-.25,0c-.49,0-.5-.11-.5-.38v-2.5h.75v-.86h-.75Z"/><path class="cls-1" d="M143.08,105.75a2.14,2.14,0,0,0-2.21,2.32c0,1.9,1,2.52,2.3,2.52a2,2,0,0,0,2-1.47h-1.25a.77.77,0,0,1-.77.5c-1,0-1-.78-1.08-1.12h3.15v-.22C145.24,106.18,144,105.75,143.08,105.75Zm-1,2c.07-.6.37-1,.94-1a.94.94,0,0,1,.94,1Z"/><path class="cls-1" d="M146.91,107.11c0-.19.09-.45.74-.45s.77.32.82.61h1.18c-.09-1.3-1.16-1.52-2.06-1.52-1.44,0-1.86.86-1.86,1.54,0,1.72,2.85,1.14,2.85,1.91,0,.17-.15.47-.77.47s-1-.28-1-.67h-1.25c0,1.23,1.17,1.59,2.22,1.59.71,0,2-.24,2-1.58C149.79,107.31,146.91,107.84,146.91,107.11Z"/><path class="cls-1" d="M154.56,105.75a2.14,2.14,0,0,0-2.21,2.32c0,1.9,1,2.52,2.29,2.52a2,2,0,0,0,2-1.47h-1.25a.77.77,0,0,1-.78.5c-1,0-1-.78-1.08-1.12h3.16v-.22C156.72,106.18,155.46,105.75,154.56,105.75Zm-1,2c.07-.6.37-1,.94-1a.93.93,0,0,1,.93,1Z"/><path class="cls-1" d="M161.5,106.77a.79.79,0,0,1,.81.74h1.22a1.88,1.88,0,0,0-2-1.76c-1.56,0-2.2,1.06-2.2,2.55a2,2,0,0,0,2.12,2.29,2,2,0,0,0,2.1-1.8H162.3a.85.85,0,0,1-.82.81c-.92,0-.94-1-.94-1.5S160.74,106.77,161.5,106.77Z"/><path class="cls-1" d="M166.27,105.75a2.42,2.42,0,1,0,2.36,2.42A2.24,2.24,0,0,0,166.27,105.75Zm0,3.82c-.93,0-1.1-.81-1.1-1.4s.17-1.4,1.1-1.4,1.11.81,1.11,1.4S167.21,109.57,166.27,109.57Z"/><path class="cls-1" d="M174.27,105.75a1.43,1.43,0,0,0-1.22.73,1.32,1.32,0,0,0-1.28-.73,1.37,1.37,0,0,0-1.31.79h0v-.67h-1.16v4.6h1.22v-2.8c0-.5.18-.9.75-.9.72,0,.72.54.72.93v2.77h1.22v-2.76c0-.54.21-.94.82-.94.35,0,.65.22.65.91v2.79h1.21v-3.18A1.47,1.47,0,0,0,174.27,105.75Z"/><path class="cls-1" d="M179.57,108.52a.92.92,0,0,1-.94,1c-.37,0-.78-.14-.78-.85v-2.85h-1.21v3a1.48,1.48,0,0,0,1.56,1.69,1.51,1.51,0,0,0,1.4-.77h0v.65h1.16v-4.6h-1.21Z"/><path class="cls-1" d="M184.29,105.75a1.48,1.48,0,0,0-1.38.79h0v-.67h-1.16v4.6h1.21v-2.64a.94.94,0,0,1,.95-1.06c.77,0,.79.57.79.91v2.79h1.21v-3.18A1.47,1.47,0,0,0,184.29,105.75Z"/><rect class="cls-1" x="186.87" y="104.2" width="1.21" height="1.12"/><rect class="cls-1" x="186.87" y="105.87" width="1.21" height="4.6"/><path class="cls-1" d="M191,106.77a.77.77,0,0,1,.81.74H193a1.89,1.89,0,0,0-2-1.76c-1.55,0-2.2,1.06-2.2,2.55a2,2,0,0,0,2.13,2.29,2,2,0,0,0,2.1-1.8h-1.23a.85.85,0,0,1-.82.81c-.92,0-.94-1-.94-1.5S190.23,106.77,191,106.77Z"/><path class="cls-1" d="M197.41,109.57v-2.49c0-1.13-1.18-1.33-1.83-1.33-1,0-1.92.2-2.06,1.61h1.17a.64.64,0,0,1,.74-.64c.31,0,.8,0,.8.53,0,.26-.24.34-.43.37l-1.09.16a1.4,1.4,0,0,0-1.34,1.47,1.29,1.29,0,0,0,1.4,1.34,1.9,1.9,0,0,0,1.49-.66,2.25,2.25,0,0,0,.11.54h1.31v-.18C197.53,110.24,197.41,110.12,197.41,109.57Zm-1.18-.75a1,1,0,0,1-1.09.91.53.53,0,0,1-.56-.56c0-.5.37-.61.82-.69a1.79,1.79,0,0,0,.83-.25Z"/><path class="cls-1" d="M200.25,106.77a.77.77,0,0,1,.8.74h1.23a1.88,1.88,0,0,0-2-1.76c-1.56,0-2.21,1.06-2.21,2.55a2.05,2.05,0,0,0,1.72,2.26l-.42.64.18.17a1.15,1.15,0,0,1,.35-.07.31.31,0,0,1,.33.31.38.38,0,0,1-.4.34,2.68,2.68,0,0,1-.67-.14l-.19.42a2.55,2.55,0,0,0,1,.21c.63,0,1.07-.35,1.07-.85a.7.7,0,0,0-.76-.68.73.73,0,0,0-.25,0l.24-.36a2,2,0,0,0,2-1.8H201a.84.84,0,0,1-.82.81c-.91,0-.93-1-.93-1.5S199.49,106.77,200.25,106.77Z"/><path class="cls-1" d="M206.66,109.57v-2.49c0-1.13-1.18-1.33-1.83-1.33-.94,0-1.92.2-2.06,1.61h1.17a.65.65,0,0,1,.74-.64c.31,0,.8,0,.8.53,0,.26-.23.34-.42.37l-1.09.16a1.4,1.4,0,0,0-1.34,1.47,1.29,1.29,0,0,0,1.4,1.34,1.86,1.86,0,0,0,1.48-.66,2.25,2.25,0,0,0,.12.54h1.3v-.18C206.79,110.24,206.66,110.12,206.66,109.57Zm-1.18-.75a1,1,0,0,1-1.08.91.53.53,0,0,1-.56-.56c0-.5.37-.61.82-.69a1.73,1.73,0,0,0,.82-.25Z"/><path class="cls-1" d="M204.16,104.82a2.79,2.79,0,0,1,.61.18,2.76,2.76,0,0,0,.66.13c.72,0,.9-.78.94-1h-.56a.4.4,0,0,1-.41.34,1.37,1.37,0,0,1-.53-.15,1.7,1.7,0,0,0-.63-.16.9.9,0,0,0-.79.41,1.57,1.57,0,0,0-.25.65h.55A.43.43,0,0,1,204.16,104.82Z"/><path class="cls-1" d="M209.65,105.75a2.42,2.42,0,1,0,2.35,2.42A2.23,2.23,0,0,0,209.65,105.75Zm0,3.82c-.94,0-1.11-.81-1.11-1.4s.17-1.4,1.11-1.4,1.1.81,1.1,1.4S210.58,109.57,209.65,109.57Z"/></svg>