<svg id="Camada_1" data-name="Camada 1" xmlns="http://www.w3.org/2000/svg" viewBox="0 0 321 223"><defs><style>.cls-1,.cls-2{fill:none;stroke-miterlimit:10;}.cls-1{stroke:#dae7ea;}.cls-2{stroke:#fbff12;}.cls-3{fill:#fbff12;}.cls-4{fill:#00a6fb;}</style></defs><title>Imagens site</title><polygon class="cls-1" points="130.25 162.97 304.73 76.37 199.02 15.24 23.28 101.84 130.25 162.97"/><polyline class="cls-1" points="306 76.37 306 132.4 130.25 219"/><line class="cls-1" x1="130.25" y1="179.52" x2="130.25" y2="162.97"/><polyline class="cls-1" points="22.01 101.84 22.01 159.15 130.25 219 130.25 198.79"/><path class="cls-2" d="M130.5,199.5l9.66-4.2c2.34-1,4.7-2,7-3.05,2.79-1.24,5.87-2.1,8.16-4.14,1.6-1.43,3.07-5,2.56-8.71a8,8,0,0,0-4.18-6.65l-.05,0a7.55,7.55,0,0,0-6.65-.31L130.5,179.5l-15.24-7.16a7.58,7.58,0,0,0-6.65-.05l0,0a9.1,9.1,0,0,0-2.39,14c2.17,2.16,5.21,3.18,7.92,4.57,2.28,1.17,4.58,2.29,6.87,3.43,3.31,1.66,6.23,3.55,9.54,5.21"/><circle class="cls-3" cx="110.19" cy="182.19" r="1.27"/><circle class="cls-3" cx="108.47" cy="178.55" r="1.27"/><circle class="cls-3" cx="112.11" cy="176.83" r="1.27"/><circle class="cls-3" cx="149.45" cy="178.27" r="1.27"/><circle class="cls-3" cx="153.13" cy="179.91" r="1.27"/><circle class="cls-3" cx="151.48" cy="183.59" r="1.27"/><polygon class="cls-2" points="120.07 179.52 130.25 184.62 141.72 179.52 141.72 189.71 130.25 194.8 120.07 189.71 120.07 179.52"/><polygon class="cls-1" points="51.55 117.99 51.55 139.41 54.48 138.13 55.75 143.23 58.3 140.68 62.12 145.77 62.12 124.03 79.95 115.21 74.86 113.94 74.86 110.11 69.76 110.11 69.76 107.57 51.55 117.99"/><polygon class="cls-1" points="281.01 87.07 261.71 77.78 261.59 80.98 256.45 79.92 257.64 83.32 251.39 84.55 270.98 93.98 271.19 113.88 274.55 109.84 278 111.49 280.2 106.9 282.5 108.01 281.01 87.07"/><ellipse class="cls-1" cx="161.75" cy="87.19" rx="40.08" ry="24.2"/><ellipse class="cls-4" cx="195.49" cy="40.82" rx="11.41" ry="6.89"/><ellipse class="cls-1" cx="161.46" cy="83.37" rx="34.38" ry="19.1"/></svg>