<svg id="Camada_1" data-name="Camada 1" xmlns="http://www.w3.org/2000/svg" viewBox="0 0 108 111"><defs><style>.cls-1{fill:#353535;}.cls-2{fill:none;stroke:#353535;stroke-miterlimit:10;}</style></defs><title>Imagens site</title><path class="cls-1" d="M55,43.66c5.35,0,6,0,8.1.12a10.87,10.87,0,0,1,3.71.69A6.14,6.14,0,0,1,69.09,46a6.37,6.37,0,0,1,1.5,2.31A11,11,0,0,1,71.27,52c.1,2.11.12,2.74.12,8.09s0,6-.12,8.09a11.07,11.07,0,0,1-.68,3.72,6.33,6.33,0,0,1-1.5,2.3,6.16,6.16,0,0,1-2.31,1.5,10.87,10.87,0,0,1-3.71.69c-2.12.1-2.75.12-8.1.12s-6,0-8.09-.12a11,11,0,0,1-3.72-.69,6.66,6.66,0,0,1-3.8-3.8,11.27,11.27,0,0,1-.69-3.72c-.1-2.11-.12-2.74-.12-8.09s0-6,.12-8.09a11.15,11.15,0,0,1,.69-3.72,6.59,6.59,0,0,1,3.8-3.8,11,11,0,0,1,3.72-.69c2.11-.1,2.75-.12,8.09-.12m0-3.61c-5.44,0-6.12,0-8.25.12a15,15,0,0,0-4.87.93A10.25,10.25,0,0,0,36,47a14.38,14.38,0,0,0-.93,4.86C35,54,35,54.64,35,60.08s0,6.12.12,8.26A14.43,14.43,0,0,0,36,73.2a10.27,10.27,0,0,0,5.85,5.85,14.66,14.66,0,0,0,4.87.94c2.13.09,2.81.12,8.25.12s6.12,0,8.26-.12a14.6,14.6,0,0,0,4.86-.94,9.66,9.66,0,0,0,3.55-2.31A9.84,9.84,0,0,0,74,73.2a14.94,14.94,0,0,0,.93-4.86c.1-2.14.12-2.82.12-8.26s0-6.12-.12-8.26A14.88,14.88,0,0,0,74,47a10.23,10.23,0,0,0-5.86-5.86,14.88,14.88,0,0,0-4.86-.93c-2.14-.1-2.82-.12-8.26-.12"/><path class="cls-1" d="M55,49.79A10.29,10.29,0,1,0,65.26,60.08,10.29,10.29,0,0,0,55,49.79m0,17a6.68,6.68,0,1,1,6.68-6.67A6.67,6.67,0,0,1,55,66.75"/><path class="cls-1" d="M68.07,49.39A2.41,2.41,0,1,1,65.66,47a2.4,2.4,0,0,1,2.41,2.41"/><circle class="cls-2" cx="54" cy="60" r="37.5"/></svg>