<svg id="Camada_1" data-name="Camada 1" xmlns="http://www.w3.org/2000/svg" viewBox="0 0 856 754"><defs><style>.cls-1,.cls-3{fill:none;stroke:#fbff12;stroke-miterlimit:10;}.cls-1{stroke-width:3px;}.cls-2{fill:#fbff12;}.cls-3{font-size:88.13px;stroke-width:2px;font-family:WorkSans-Regular, Work Sans;}.cls-4{letter-spacing:-0.02em;}</style></defs><title>Imagens site</title><circle class="cls-1" cx="304" cy="314" r="258"/><ellipse class="cls-2" cx="213.5" cy="248.5" rx="34.5" ry="49.5"/><ellipse class="cls-2" cx="383.5" cy="248.5" rx="34.5" ry="49.5"/><path class="cls-1" d="M305.74,499.24c111.26-3.24,141-75,149-127.74,3.47-23.09-17.57-42.28-40.32-37-85,19.63-179.51,8.74-234-.94a33.12,33.12,0,0,0-37.76,41.28C156.65,426.33,196,502.43,305.74,499.24Z"/><path class="cls-2" d="M176,361s81,31,255,3c0,0-31,57-127,57C304,421,209,429,176,361Z"/><text class="cls-3" transform="translate(532.32 557.63)"><tspan class="cls-4">D</tspan><tspan x="61.61" y="0">ALE!</tspan></text></svg>