<svg id="Camada_1" data-name="Camada 1" xmlns="http://www.w3.org/2000/svg" viewBox="0 0 104 115"><defs><style>.cls-1{fill:#353535;}.cls-2{fill:none;stroke:#353535;stroke-miterlimit:10;}</style></defs><title>Imagens site</title><path class="cls-1" d="M48.88,66.5a7,7,0,0,0,2.9-1.28,7.19,7.19,0,0,0,1.82-2,7.52,7.52,0,0,0,1.14-4.09,6.76,6.76,0,0,0-1-3.76,5.75,5.75,0,0,0-3-2.26,6.29,6.29,0,0,0,2-1.46,5.72,5.72,0,0,0,1.18-3.78,6.47,6.47,0,0,0-1.18-3.91c-1.3-1.77-3.51-2.69-6.64-2.73H33.7V66.85H45.26A17.17,17.17,0,0,0,48.88,66.5ZM38.82,45.66H44.4a9.54,9.54,0,0,1,3,.4,2.29,2.29,0,0,1,1.38,2.37,2.4,2.4,0,0,1-1.05,2.25,5.15,5.15,0,0,1-2.71.64H38.82Zm0,16.74V55.56h6.31a6.37,6.37,0,0,1,2.56.44,2.75,2.75,0,0,1,1.64,2.75A3.23,3.23,0,0,1,47.64,62a6.05,6.05,0,0,1-2.59.45Z"/><path class="cls-1" d="M59.08,65.16a10.33,10.33,0,0,0,6.68,2.34,9.21,9.21,0,0,0,7.14-2.77,6.24,6.24,0,0,0,1.84-3.43H69.67a4.09,4.09,0,0,1-1,1.31,4.18,4.18,0,0,1-2.75.87,5,5,0,0,1-2.73-.72,4.54,4.54,0,0,1-2-4H75A24,24,0,0,0,74.83,55a9.22,9.22,0,0,0-1.51-3.92A7.65,7.65,0,0,0,70,48.27a10.83,10.83,0,0,0-4.46-.88A9.14,9.14,0,0,0,58.8,50q-2.61,2.64-2.61,7.56Q56.19,62.83,59.08,65.16Zm3.54-12.6a4,4,0,0,1,3-1.09,4.37,4.37,0,0,1,3,1,4.17,4.17,0,0,1,1.32,3H61.3A5.15,5.15,0,0,1,62.62,52.56Z"/><rect class="cls-1" x="59.69" y="42.68" width="11.14" height="2.59"/><circle class="cls-2" cx="53" cy="54" r="37.5"/></svg>