<svg id="Camada_1" data-name="Camada 1" xmlns="http://www.w3.org/2000/svg" viewBox="0 0 305 215"><defs><style>.cls-1{fill:#e11a27;}</style></defs><title>Imagens site</title><polygon class="cls-1" points="25.68 189.93 24.46 189.23 76.65 98.29 25.15 98.25 25.15 96.84 79.08 96.88 25.68 189.93"/><path class="cls-1" d="M151.15,166.81v-.05h-57V13.48h33.48A38.49,38.49,0,0,1,151,82.19h.18a42.31,42.31,0,0,1,0,84.62ZM95.5,165.35h56v.05a40.9,40.9,0,0,0-.38-81.8h-2.07l-.32.23-.16-.23H95.5Zm0-83.16h53.13A37.09,37.09,0,0,0,127,14.88H95.5Z"/><polygon class="cls-1" points="295.3 166.41 212.14 166.41 212.14 14.88 213.54 14.88 213.54 165 295.3 165 295.3 166.41"/></svg>