<svg id="Camada_1" data-name="Camada 1" xmlns="http://www.w3.org/2000/svg" viewBox="0 0 329 200"><defs><style>.cls-1{fill:#323232;}</style></defs><title>Imagens site</title><polygon class="cls-1" points="43.68 190.93 42.46 190.23 94.65 99.29 43.15 99.25 43.15 97.84 97.08 97.88 43.68 190.93"/><path class="cls-1" d="M169.15,167.81v-.05h-57V14.48h33.48A38.49,38.49,0,0,1,169,83.19h.18a42.31,42.31,0,0,1,0,84.62Zm-55.65-1.46h56v.05a40.9,40.9,0,0,0-.38-81.8h-2.07l-.32.23-.16-.23H113.5Zm0-83.16h53.13A37.09,37.09,0,0,0,145,15.88H113.5Z"/><polygon class="cls-1" points="313.3 167.41 230.14 167.41 230.14 15.88 231.54 15.88 231.54 166 313.3 166 313.3 167.41"/></svg>