<svg id="Camada_1" data-name="Camada 1" xmlns="http://www.w3.org/2000/svg" viewBox="0 0 324 205"><defs><style>.cls-1{fill:#323232;}</style></defs><title>Imagens site</title><path class="cls-1" d="M184.05,194.37H136.17l41-57.53a20.71,20.71,0,0,0,1.66-21.59A20.29,20.29,0,0,0,161,103.81h-.61a23.69,23.69,0,0,0-23.67,23.67h-1.41a25.11,25.11,0,0,1,25.08-25.08H161a21.66,21.66,0,0,1,19.11,12.21,22.07,22.07,0,0,1-1.78,23L138.91,193h45.14Z"/><path class="cls-1" d="M76.68,170.81v-.05h-57V17.48H53.09a38.49,38.49,0,0,1,23.4,68.71h.19a42.31,42.31,0,0,1,0,84.62ZM21,169.35h56v.05a40.9,40.9,0,0,0-.38-81.8H74.61l-.33.23-.15-.23H21Zm0-83.16H74.16A37.09,37.09,0,0,0,52.57,18.88H21Z"/><path class="cls-1" d="M263.44,170.81v-.05H206.38V17.48h33.47a38.49,38.49,0,0,1,23.4,68.71h.19a42.31,42.31,0,1,1,0,84.62Zm-55.65-1.46h56v.05a40.9,40.9,0,0,0-.38-81.8h-2.07l-.33.23-.15-.23h-53.1Zm0-83.16h53.13a37.09,37.09,0,0,0-21.6-67.31H207.79Z"/></svg>