<svg id="Camada_1" data-name="Camada 1" xmlns="http://www.w3.org/2000/svg" viewBox="0 0 321 221"><defs><style>.cls-1{fill:#fbff12;}</style></defs><title>Imagens site</title><path class="cls-1" d="M190.05,193.37H142.17l41-57.53a20.71,20.71,0,0,0,1.66-21.59A20.29,20.29,0,0,0,167,102.81h-.61a23.69,23.69,0,0,0-23.67,23.67h-1.41a25.11,25.11,0,0,1,25.08-25.08H167a21.66,21.66,0,0,1,19.11,12.21,22.07,22.07,0,0,1-1.78,23L144.91,192h45.14Z"/><path class="cls-1" d="M82.68,169.81v-.05h-57V16.48H59.09a38.49,38.49,0,0,1,23.4,68.71h.19a42.31,42.31,0,0,1,0,84.62ZM27,168.35h56v.05a40.9,40.9,0,0,0-.38-81.8H80.61l-.33.23-.15-.23H27Zm0-83.16H80.16A37.09,37.09,0,0,0,58.57,17.88H27Z"/><path class="cls-1" d="M269.44,169.81v-.05H212.38V16.48h33.47a38.49,38.49,0,0,1,23.4,68.71h.19a42.31,42.31,0,1,1,0,84.62Zm-55.65-1.46h56v.05a40.9,40.9,0,0,0-.38-81.8h-2.07l-.33.23-.15-.23h-53.1Zm0-83.16h53.13a37.09,37.09,0,0,0-21.6-67.31H213.79Z"/></svg>