<svg id="Camada_1" data-name="Camada 1" xmlns="http://www.w3.org/2000/svg" viewBox="0 0 704 200"><defs><style>.cls-1{fill:#323232;}</style></defs><title>Imagens site</title><path class="cls-1" d="M332.56,176.38A77.87,77.87,0,0,1,277.5,43.44,77.87,77.87,0,1,1,387.63,153.57,77.36,77.36,0,0,1,332.56,176.38Zm0-154.34A76.47,76.47,0,1,0,409,98.51,76.55,76.55,0,0,0,332.56,22Z"/><path class="cls-1" d="M71.43,175V175h-57V21.69H47.84A38.49,38.49,0,0,1,71.24,90.4h.19a42.32,42.32,0,0,1,0,84.63Zm-55.65-1.47h56v.05a40.9,40.9,0,0,0-.38-81.8H69.36L69,92l-.15-.23H15.78Zm0-83.16H68.91A37.09,37.09,0,0,0,47.32,23.1H15.78Z"/><path class="cls-1" d="M640.19,175.33a42.11,42.11,0,0,1-42.07-42.07h1.41a40.66,40.66,0,1,0,81.31,0A34.68,34.68,0,0,0,663,102.54C656.78,99.08,649.77,97,643,95c-3.7-1.1-7.53-2.23-11.16-3.57-16.75-6.2-26.74-19-26.74-34.28a35.46,35.46,0,1,1,70.91,0h-1.4a34,34,0,0,0-68.1,0c0,14.65,9.65,27,25.82,32.95,3.58,1.33,7.39,2.46,11.07,3.55,6.86,2,14,4.12,20.29,7.66a36.06,36.06,0,0,1,18.58,31.95A42.11,42.11,0,0,1,640.19,175.33Z"/><polygon class="cls-1" points="468.42 175.61 415.76 23.33 417.1 22.87 468.74 172.22 500.65 116.46 531.88 172.25 588.08 22.85 589.4 23.35 532.13 175.58 500.64 119.32 468.42 175.61"/><rect class="cls-1" x="139.81" y="22.75" width="1.41" height="151.52"/><path class="cls-1" d="M174.88,131.63H139.81V22l35.07.36a54.69,54.69,0,0,1,38.74,15.87,53.93,53.93,0,0,1,16,38.58A54.85,54.85,0,0,1,174.88,131.63Zm-33.66-1.41h33.66a53.21,53.21,0,1,0,0-106.42l-33.66-.34Z"/><rect class="cls-1" x="200.07" y="122.81" width="1.41" height="59.58" transform="translate(-49.99 179.33) rotate(-43.32)"/></svg>