<svg id="Camada_1" data-name="Camada 1" xmlns="http://www.w3.org/2000/svg" viewBox="0 0 693 198"><defs><style>.cls-1{fill:#00a6fb;}</style></defs><title>Imagens site</title><path class="cls-1" d="M330.56,166.38A77.87,77.87,0,0,1,275.5,33.44,77.87,77.87,0,1,1,385.63,143.57,77.36,77.36,0,0,1,330.56,166.38Zm0-154.34A76.47,76.47,0,1,0,407,88.51,76.55,76.55,0,0,0,330.56,12Z"/><path class="cls-1" d="M69.43,165V165h-57V11.69H45.84A38.49,38.49,0,0,1,69.24,80.4h.19a42.32,42.32,0,0,1,0,84.63Zm-55.65-1.47h56v.05a40.9,40.9,0,0,0-.38-81.8H67.36L67,82l-.15-.23H13.78Zm0-83.16H66.91A37.09,37.09,0,0,0,45.32,13.1H13.78Z"/><path class="cls-1" d="M638.19,165.33a42.11,42.11,0,0,1-42.07-42.07h1.41a40.66,40.66,0,1,0,81.31,0A34.68,34.68,0,0,0,661,92.54C654.78,89.08,647.77,87,641,85c-3.7-1.1-7.53-2.23-11.16-3.57-16.75-6.2-26.74-19-26.74-34.28a35.46,35.46,0,1,1,70.91,0h-1.4a34,34,0,0,0-68.1,0c0,14.65,9.65,27,25.82,32.95,3.58,1.33,7.39,2.46,11.07,3.55,6.86,2,14,4.12,20.29,7.66a36.06,36.06,0,0,1,18.58,32A42.11,42.11,0,0,1,638.19,165.33Z"/><polygon class="cls-1" points="466.42 165.61 413.76 13.33 415.1 12.87 466.74 162.22 498.65 106.46 529.88 162.25 586.08 12.85 587.4 13.35 530.13 165.58 498.64 109.32 466.42 165.61"/><rect class="cls-1" x="137.81" y="12.75" width="1.41" height="151.52"/><path class="cls-1" d="M172.88,121.63H137.81V12l35.07.36a54.69,54.69,0,0,1,38.74,15.87,53.93,53.93,0,0,1,16,38.58A54.85,54.85,0,0,1,172.88,121.63Zm-33.66-1.41h33.66a53.21,53.21,0,1,0,0-106.42l-33.66-.34Z"/><rect class="cls-1" x="198.07" y="112.81" width="1.41" height="59.58" transform="translate(-43.67 175.24) rotate(-43.32)"/></svg>