<svg id="Camada_1" data-name="Camada 1" xmlns="http://www.w3.org/2000/svg" viewBox="0 0 541 211"><defs><style>.cls-1{fill:#35b22e;}</style></defs><title>Imagens site</title><path class="cls-1" d="M166.81,187H118.67l41.23-57.84a20.84,20.84,0,0,0,1.68-21.72,20.43,20.43,0,0,0-18-11.5H143a23.84,23.84,0,0,0-23.81,23.81h-1.41A25.24,25.24,0,0,1,143,94.55h.65a21.8,21.8,0,0,1,19.21,12.28A22.2,22.2,0,0,1,161.05,130l-39.64,55.62h45.4Z"/><rect class="cls-1" x="21.28" y="11.18" width="1.41" height="151.87"/><rect class="cls-1" x="92.94" y="11.18" width="1.41" height="151.87"/><rect class="cls-1" x="21.98" y="139.22" width="71.41" height="1.41"/><path class="cls-1" d="M395.72,186.66H347.84v-1.41H393L353.56,130a22.09,22.09,0,0,1-1.77-23A21.69,21.69,0,0,1,370.9,94.7h.64a25.11,25.11,0,0,1,25.08,25.08h-1.41A23.69,23.69,0,0,0,371.54,96.1h-.61a20.3,20.3,0,0,0-17.88,11.43,20.73,20.73,0,0,0,1.66,21.6Z"/><rect class="cls-1" x="421.93" y="11.18" width="1.41" height="151.87"/><rect class="cls-1" x="493.59" y="11.18" width="1.41" height="151.87"/><rect class="cls-1" x="422.63" y="139.22" width="71.41" height="1.41"/><path class="cls-1" d="M259.84,165.17A77.87,77.87,0,0,1,204.77,32.23,77.87,77.87,0,1,1,314.9,142.36,77.35,77.35,0,0,1,259.84,165.17Zm0-154.34A76.47,76.47,0,1,0,336.3,87.29,76.55,76.55,0,0,0,259.84,10.83Z"/></svg>