<svg id="Camada_1" data-name="Camada 1" xmlns="http://www.w3.org/2000/svg" viewBox="0 0 563 216"><defs><style>.cls-1{fill:#323232;}</style></defs><title>Imagens site</title><path class="cls-1" d="M188.81,196H140.67l41.23-57.84a20.84,20.84,0,0,0,1.68-21.72,20.43,20.43,0,0,0-18-11.5H165a23.84,23.84,0,0,0-23.81,23.81h-1.41A25.24,25.24,0,0,1,165,103.55h.65a21.8,21.8,0,0,1,19.21,12.28A22.2,22.2,0,0,1,183.05,139l-39.64,55.62h45.4Z"/><rect class="cls-1" x="43.28" y="20.18" width="1.41" height="151.87"/><rect class="cls-1" x="114.94" y="20.18" width="1.41" height="151.87"/><rect class="cls-1" x="43.98" y="148.22" width="71.41" height="1.41"/><path class="cls-1" d="M417.72,195.66H369.84v-1.41H415L375.56,139a22.09,22.09,0,0,1-1.77-23A21.69,21.69,0,0,1,392.9,103.7h.64a25.11,25.11,0,0,1,25.08,25.08h-1.41a23.69,23.69,0,0,0-23.67-23.67h-.61a20.3,20.3,0,0,0-17.88,11.43,20.73,20.73,0,0,0,1.66,21.6Z"/><rect class="cls-1" x="443.93" y="20.18" width="1.41" height="151.87"/><rect class="cls-1" x="515.59" y="20.18" width="1.41" height="151.87"/><rect class="cls-1" x="444.63" y="148.22" width="71.41" height="1.41"/><path class="cls-1" d="M281.84,174.17A77.87,77.87,0,0,1,226.77,41.23,77.87,77.87,0,1,1,336.9,151.36,77.35,77.35,0,0,1,281.84,174.17Zm0-154.34A76.47,76.47,0,1,0,358.3,96.29,76.55,76.55,0,0,0,281.84,19.83Z"/></svg>